<?xml version="1.0" encoding="UTF-8"?>
<svg version="1.1" xmlns="http://www.w3.org/2000/svg" width="800" height="800">
<path d="M0 0 C1.43918431 -0.00445691 2.87836616 -0.00977244 4.31754446 -0.01586872 C8.25914974 -0.03000528 12.200676 -0.03171284 16.14230299 -0.03127182 C20.39883004 -0.0329239 24.6553249 -0.04599785 28.91183472 -0.0574646 C38.21379108 -0.0802849 47.51572459 -0.08823223 56.81770515 -0.09329104 C62.63113366 -0.09655197 68.44455557 -0.1030769 74.25798035 -0.11029243 C90.36842892 -0.12985566 106.47887137 -0.14626111 122.58933258 -0.14916897 C124.13486955 -0.14945032 124.13486955 -0.14945032 125.71162948 -0.14973736 C127.80023225 -0.1501036 129.88883502 -0.1504673 131.97743779 -0.15082847 C133.01415945 -0.15101128 134.0508811 -0.1511941 135.11901855 -0.15138245 C136.15701275 -0.151563 137.19500694 -0.15174354 138.2644555 -0.15192956 C155.07263075 -0.15546899 171.88067771 -0.18247817 188.6888085 -0.21988034 C205.96477546 -0.25801436 223.24067886 -0.27732682 240.51668882 -0.27762848 C250.20870491 -0.27821195 259.90056799 -0.28663276 269.59254456 -0.31562614 C277.84768599 -0.34020842 286.10261864 -0.34737698 294.35778683 -0.33237862 C298.56443094 -0.32523724 302.77066333 -0.32594628 306.97726059 -0.34878922 C310.83923776 -0.36955847 314.70049141 -0.36661438 318.56246227 -0.34591437 C320.59822863 -0.34083196 322.6340127 -0.36006043 324.66968203 -0.38057607 C341.4264549 -0.23011965 355.71127917 5.41929004 368.04577637 16.83665466 C379.95644217 29.27836926 385.02925968 44.24222303 384.9813242 61.22669029 C384.98247804 62.22975383 384.98363188 63.23281737 384.98482069 64.26627678 C384.98747691 67.64232221 384.98297333 71.01832038 384.97853088 74.3943634 C384.97896679 76.83317406 384.97984205 79.27198468 384.98112005 81.71079504 C384.98289273 87.02082906 384.98155118 92.33084881 384.97748184 97.64088058 C384.9714477 105.53670675 384.97114596 113.43252584 384.97202383 121.32835389 C384.97333793 134.61028123 384.96999557 147.89220359 384.96400642 161.17412949 C384.95809095 174.32635396 384.95424079 187.47857636 384.95315361 200.63080215 C384.95308487 201.44833432 384.95301613 202.26586648 384.95294531 203.10817234 C384.95260698 207.25994509 384.95230559 211.41171784 384.95201843 215.56349058 C384.9499176 244.97632403 384.94317904 274.38915477 384.93371582 303.80198669 C384.9245326 332.37750738 384.91744839 360.95302733 384.91320801 389.52854919 C384.91307648 390.40925303 384.91294496 391.28995686 384.91280944 392.19734868 C384.91149093 401.04167691 384.91021512 409.88600515 384.90897058 418.73033339 C384.90643432 436.74751417 384.90361307 454.7646949 384.90061951 472.78187561 C384.90048222 473.61029034 384.90034493 474.43870506 384.90020348 475.29222326 C384.89100163 530.61953486 384.8751355 585.94684493 384.85827637 641.27415466 C379.77412185 640.54224862 375.79521509 638.9777447 371.28405762 636.59056091 C370.56736404 636.21965332 369.85067047 635.84874573 369.11225891 635.46659851 C366.79424191 634.26448403 364.48253179 633.05076029 362.17077637 631.83665466 C360.56615862 631.00156604 358.96117642 630.16717736 357.35583496 629.33348083 C352.85106236 626.99097498 348.35362679 624.63468004 343.85827637 622.27415466 C342.85876953 621.75015076 341.8592627 621.22614685 340.82946777 620.68626404 C337.84001812 619.1177583 334.85209268 617.54648645 331.86828613 615.9672699 C324.80588492 612.23105742 317.70715217 608.56540893 310.60827637 604.89915466 C300.88408212 599.87671012 291.16948155 594.83661843 281.46960449 589.76731873 C274.0243992 585.8779935 266.56739147 582.01172513 259.10827637 578.14915466 C250.81540056 573.85417378 242.53652728 569.53492747 234.2791748 565.17210388 C226.99404902 561.33054481 219.67613101 557.55282827 212.35827637 553.77415466 C204.09534195 549.50695572 195.83757533 545.23100353 187.60827637 540.89915466 C186.86746826 540.51211365 186.12666016 540.12507263 185.36340332 539.7263031 C181.58277373 537.74426639 177.84379825 535.70929345 174.13562012 533.59446716 C173.36443848 533.16311462 172.59325684 532.73176208 171.79870605 532.28733826 C170.34314047 531.47122465 168.89633048 530.63920208 167.46081543 529.78831482 C164.31757543 528.04181013 162.57574068 527.09251033 159.0135498 527.99436951 C155.81721498 529.29080924 152.79459943 530.73232575 149.73718262 532.32884216 C148.56655273 532.93736023 147.39592285 533.5458783 146.18981934 534.1728363 C144.93342805 534.83152588 143.67708147 535.49030073 142.42077637 536.14915466 C141.11255152 536.8311095 139.80411786 537.51266392 138.4954834 538.1938324 C135.21824179 539.90091188 131.9435746 541.6128616 128.66973877 543.32646179 C126.0425224 544.7009282 123.4133231 546.07158176 120.78405762 547.44212341 C118.01310067 548.88675065 115.24241468 550.33187982 112.47277832 551.77903748 C105.02679707 555.66955455 97.56848383 559.536 90.10827637 563.39915466 C81.76898491 567.71836313 73.44288759 572.06052696 65.1385498 576.44651794 C57.05585099 580.70940599 48.93763926 584.90352329 40.82263184 589.10447693 C34.36366394 592.45022412 27.91451698 595.81293854 21.48327637 599.21165466 C13.46650215 603.44746799 5.41462093 607.61430326 -2.64172363 611.77415466 C-10.73940517 615.95545168 -18.83205015 620.14487244 -26.89172363 624.39915466 C-27.60900635 624.77660828 -28.32628906 625.15406189 -29.06530762 625.54295349 C-32.49230685 627.3466174 -35.91687373 629.15449368 -39.33557129 630.97386169 C-42.7880546 632.8102682 -46.24582558 634.63641625 -49.70422363 636.46165466 C-50.80669434 637.05156189 -51.90916504 637.64146912 -53.04504395 638.24925232 C-54.0682373 638.78727478 -55.09143066 639.32529724 -56.14562988 639.87962341 C-57.06158936 640.36584167 -57.97754883 640.85205994 -58.92126465 641.35301208 C-59.65401611 641.65698914 -60.38676758 641.96096619 -61.14172363 642.27415466 C-61.80172363 641.94415466 -62.46172363 641.61415466 -63.14172363 641.27415466 C-63.21020557 585.01819996 -63.27388694 528.76224117 -63.31109619 472.5062561 C-63.31192453 471.25710128 -63.31192453 471.25710128 -63.31276961 469.982711 C-63.32474159 451.88384116 -63.33582226 433.78497088 -63.34598495 415.68609994 C-63.35097424 406.81025936 -63.35616047 397.9344189 -63.3614502 389.05857849 C-63.36197323 388.17533148 -63.36249627 387.29208448 -63.36303515 386.38207241 C-63.38007678 357.75985145 -63.41011922 329.13766209 -63.44691252 300.51546028 C-63.48465757 271.09940166 -63.50926882 241.68336053 -63.51738359 212.2672781 C-63.51853619 208.11128765 -63.51983874 203.95529725 -63.5212326 199.79930687 C-63.5215023 198.98135828 -63.52177199 198.1634097 -63.52204985 197.32067479 C-63.52677445 184.16049901 -63.54532056 171.00037736 -63.56905177 157.84022364 C-63.59262124 144.6058567 -63.60159042 131.37154335 -63.59572914 118.13715617 C-63.59268971 110.2769154 -63.6007719 102.41687097 -63.62491381 94.5566657 C-63.64172126 88.68239654 -63.63754615 82.80826244 -63.62531921 76.93397792 C-63.62363045 74.56094407 -63.62869329 72.18789359 -63.64125636 69.81489239 C-63.74313033 49.38128029 -61.15942161 32.99035287 -46.48156738 17.55540466 C-33.0628473 4.47271263 -18.35561178 -0.03587773 0 0 Z " fill="#000000" transform="translate(239.1417236328125,78.72584533691406)"/>
<path d="M0 0 C19.8 0 39.6 0 60 0 C60 14.19 60 28.38 60 43 C67.92 40.03 67.92 40.03 76 37 C80.24412475 35.51405937 84.48563688 34.04830042 88.75 32.625 C89.78898438 32.27050781 90.82796875 31.91601562 91.8984375 31.55078125 C92.89617187 31.21691406 93.89390625 30.88304687 94.921875 30.5390625 C95.80456055 30.24209473 96.68724609 29.94512695 97.59667969 29.63916016 C100 29 100 29 104 29 C106.08728917 35.32942015 108.16782122 41.66103351 110.24389648 47.99414062 C110.94941103 50.14372756 111.65641274 52.29282703 112.36499023 54.44140625 C113.38927127 57.54817552 114.40800723 60.65671882 115.42578125 63.765625 C115.73840408 64.70988342 116.05102692 65.65414185 116.37312317 66.62701416 C118.56539279 73.3484293 120.36371814 80.12284471 122 87 C116.34122261 88.85513775 110.68121529 90.70645454 105.02001953 92.55419922 C103.09324163 93.18367616 101.16680759 93.81420665 99.24072266 94.44580078 C96.47647817 95.35204048 93.7110301 96.25451761 90.9453125 97.15625 C90.0806839 97.44060913 89.2160553 97.72496826 88.32522583 98.01794434 C87.52454681 98.27821411 86.7238678 98.53848389 85.89892578 98.80664062 C85.1927713 99.03758423 84.48661682 99.26852783 83.75906372 99.50646973 C82 100 82 100 80 100 C82.85517878 105.24240664 86.06240449 109.95159114 89.6875 114.6875 C90.20916748 115.3794043 90.73083496 116.07130859 91.26831055 116.78417969 C93.7510436 120.07326076 96.25824869 123.33871717 98.8203125 126.56640625 C99.24352783 127.1075708 99.66674316 127.64873535 100.1027832 128.20629883 C101.24253406 129.66071753 102.39622387 131.10418201 103.55078125 132.546875 C105 135 105 135 104.78735352 136.99560547 C103.84256864 139.40077876 102.98180064 140.09605495 100.8515625 141.5234375 C100.18519775 141.98016846 99.51883301 142.43689941 98.83227539 142.9074707 C97.73967407 143.63389771 97.73967407 143.63389771 96.625 144.375 C95.07282595 145.43676884 93.52209929 146.50065599 91.97265625 147.56640625 C90.75280029 148.40196045 90.75280029 148.40196045 89.50830078 149.25439453 C85.29527234 152.18637364 81.18184815 155.25098306 77.0625 158.3125 C70.77271185 162.97263529 64.46255108 167.58087767 58 172 C54.6432936 170.59217308 52.98600067 169.04040004 50.86328125 166.10546875 C50.2899707 165.32026855 49.71666016 164.53506836 49.12597656 163.72607422 C48.5275293 162.88834473 47.92908203 162.05061523 47.3125 161.1875 C46.3858252 159.91156982 46.3858252 159.91156982 45.44042969 158.60986328 C41.07296982 152.5730278 36.81924136 146.46330384 32.671875 140.2734375 C31.19988834 137.91010554 31.19988834 137.91010554 29 137 C28.72615479 137.57943359 28.45230957 138.15886719 28.17016602 138.75585938 C27.01783132 140.96580315 25.74056487 142.89101455 24.27734375 144.90625 C23.74286621 145.64496338 23.20838867 146.38367676 22.65771484 147.14477539 C22.09004395 147.92199951 21.52237305 148.69922363 20.9375 149.5 C20.35693848 150.29720459 19.77637695 151.09440918 19.17822266 151.91577148 C18.00597236 153.52296192 16.83216058 155.12901468 15.65673828 156.73388672 C14.1785453 158.75578287 12.7108244 160.78475342 11.24609375 162.81640625 C10.45635886 163.89889717 9.66604218 164.98096402 8.875 166.0625 C8.19179688 167.00222656 7.50859375 167.94195312 6.8046875 168.91015625 C5 171 5 171 2 172 C0.29272461 171.12646484 0.29272461 171.12646484 -1.59765625 169.7109375 C-2.30784912 169.18781982 -3.01804199 168.66470215 -3.74975586 168.12573242 C-4.51296143 167.54799072 -5.27616699 166.97024902 -6.0625 166.375 C-7.68988766 165.17028039 -9.31749826 163.9658619 -10.9453125 162.76171875 C-11.78094727 162.1382959 -12.61658203 161.51487305 -13.47753906 160.87255859 C-17.43395482 157.93549812 -21.43673368 155.06367598 -25.4375 152.1875 C-31.96940293 147.47350118 -38.4909827 142.74556107 -45 138 C-43.35326316 132.79051177 -40.1410816 128.77852588 -36.9375 124.4375 C-36.35838867 123.64335693 -35.77927734 122.84921387 -35.18261719 122.03100586 C-32.54170509 118.4185684 -29.87785014 114.82473888 -27.17578125 111.2578125 C-26.76142822 110.71068604 -26.3470752 110.16355957 -25.92016602 109.59985352 C-24.8221817 108.15733166 -23.71605731 106.72101596 -22.609375 105.28515625 C-20.84383361 103.01102212 -20.84383361 103.01102212 -20 100 C-21.13308594 99.78601563 -22.26617187 99.57203125 -23.43359375 99.3515625 C-31.15036406 97.63672465 -38.58576667 94.90959422 -46.0625 92.375 C-47.61118679 91.85374655 -49.16001384 91.33290964 -50.70898438 90.8125 C-54.47429156 89.54646623 -58.2376523 88.27480038 -62 87 C-60.01129845 79.47750033 -57.80953626 72.05066243 -55.42578125 64.64453125 C-55.09708542 63.61688156 -54.76838959 62.58923187 -54.42973328 61.53044128 C-53.39285491 58.29041819 -52.3527367 55.05144624 -51.3125 51.8125 C-50.60329992 49.59837637 -49.89431358 47.38418427 -49.18554688 45.16992188 C-47.45949879 39.77915468 -45.73079896 34.3892436 -44 29 C-37.99067517 30.21847099 -32.24857018 31.79205219 -26.46484375 33.8203125 C-25.78587036 34.05419678 -25.10689697 34.28808105 -24.40734863 34.52905273 C-21.9155367 35.38899074 -19.42667896 36.25747006 -16.9375 37.125 C-11.348125 39.06375 -5.75875 41.0025 0 43 C0 28.81 0 14.62 0 0 Z " fill="#FDFDFD" transform="translate(278,120)"/>
</svg>
